/* XPM */
static char *d70a300ae0d746d2f0806eee85475b4aKsafCkBoAyLr0WP4[] = {
/* columns rows colors chars-per-pixel */
"64 64 56 1 ",
"  c #040404",
". c gray1",
"X c #030302",
"o c #040402",
"O c #040403",
"+ c #030301",
"@ c #050402",
"# c #050504",
"$ c gray2",
"% c #060503",
"& c #060604",
"* c #050503",
"= c #070604",
"- c #050304",
"; c #040303",
": c #050302",
"> c #050403",
", c #050404",
"< c #050303",
"1 c #070504",
"2 c #060405",
"3 c #060504",
"4 c #040304",
"5 c #040301",
"6 c #060404",
"7 c #040302",
"8 c #060403",
"9 c #060505",
"0 c #040203",
"q c #070402",
"w c #070403",
"e c #080403",
"r c #080503",
"t c #080504",
"y c #070503",
"u c #060402",
"i c #040504",
"p c #070302",
"a c #060302",
"s c #020201",
"d c #090504",
"f c #070404",
"g c #070405",
"h c #060304",
"j c #080405",
"k c #060303",
"l c #030202",
"z c #070303",
"x c #030203",
"c c #080404",
"v c #040202",
"b c #070304",
"n c #030200",
"m c #070505",
"M c #050405",
"N c #070506",
/* pixels */
"    . XooO  ..         .+o@@@@@@ ..  o#$%@%%&*%%======%%*#$  $$ ",
"    $ XooO  . ....     .o@@@@@@@   .Oo# @%%%%%%%==%%%%%%*O$$$ $ ",
"       ..OOO   ... .   -;:@@>,<@>O  .OO>%%%@%%%%==%%123% #O*#$#*",
".    ....Xo. .  . ... 4--<5@@->@@O... >@%@@%%@%%%====26% #**#$O*",
"      ....O   .X...OXo>o7@@@@@@@@@oO.Xoo@@%%%@8,6,63%%6-*o*OO*O*",
".    .....    X+  .XooXo@@@@@@%%@@oO.+oo@%%%@@>---28%%62*o******",
".  . X. .   ..Xo. ..X+oo>>@>><8%@*@oOoXo>*@@@%6->>>%%%36oo**##**",
"    OoO  .  . Oo ....ooo->@, -6%@%%@7X+o$Ooo@%>-@@@%%%@@oOO $$#*",
"     oO  OO . Oo   .X+oo>8@>,->@%%@@%oo* O+o@@>>@@@#>636****#9#*",
"   .OoX .Oo  .Oo. .oo+oo@>@@>2>%@%=@%@@@ Oo@@%%@@@@ ,2-2*o**>23%",
"    Oo.  OX; .;o.O;O7o+o@@@@>6>@@>%%@@@@.oo>@@@%@88 ,,--OOOO>63%",
" $ ...    .--->@@<--4.Oo@@@@@%@@%%%@@%@@ooo--@@@%>-  o;--,$*o@%%",
"          ,,-,>>@>---OOo:@@@@@@@8@%%%%%@@oo;->8@%8< Oo>66, >@@%%",
"   .   . >@@@@>-@>--<@7-->@@%@%@-<%%@@>%@O  4-<@@oooo*@%%62>%%%%",
"         >@@@@6-@<---@<0->@@@@@@2>@%@%%@@7  ;-<@@ooooo@@@>,>%%%%",
"oooO  Oo O@@>->@@%@@>---@@@<6%@@->%qw*8e%@@OOooo@@ooooO ooo*%%%*",
"oooO  Oo O@@>-<@@@@@>---@5@,6%@@-6%werte%%@OOo++@@oo+oX ooo>@%**",
"$  -;+o+ ,->@----<@@@@<-@@@<0@>-%@@@yeeeew@-0.OXooooooO.o@@@%$3%",
"   ,-ooo 4->>----7@@@@<0@5@0<5>-%%@@8eeeeu@<0.X+X+oooo. oo@@> 3%",
">Oi,-ooooo7@@>@>@7@@@@77@@@7@@@@@%@@%weeew%@>7555o.oooX OOoO,**%",
"@>,--*ooooo@@@@@@@@@@@@@@@555@@@@@@@@ueeey%@@@@55O.oooX  XoO o*>",
"->>>@@@5O;--<<>@7@@@@@@@@<<75@5@@8qwpppeeeq%@@:;@747++O OooO @62",
"-3%@@@@@ 4----<@@@@@@@@@@7-@@@@@@wpeppppeeey@@7057-7+oO oo* O@32",
">@@@@@@@44,---7@<7@@7@7@@<-:55555uaepauuuwewu@@777<oooO>oooO;,36",
"@@@@@@@@-4 -0-<@-7@@5@@@@>-7@5555oupw%@%%weee@@@-<@oo@%@@ooo>-6%",
">8%@@@8>>>>,;<<<<@@@5@@@@@>>:@555@@y8@><%weqy@@@>><;,@@%>@@OO2>%",
"->@@@@>-@@@OO57-@@@@5@@@@@@<<55+5@5@@@<-%up@%@@@@<-0,@@%@%@O ->%",
"63>@@@62@@@OO57<@@@@@@7@@@@<755+55@7@@>-@8q@@@@@@86-6@@@@@%O,,>@",
"%%%@@@62,>@,<@5o5@@@7@<-@@@@5@55+5555@@@@@@@@@@@@@@--@@@7@%%@@@%",
"%%%%%%6-63>6-@oo@>@@@@:<@@:@5@o7+55777@@@@@@@>>@%%@><@@@@%%*@>%@",
"@@%@%%62@>---@@75<-7@5@@@70:5@7.++sX.@@@7@@5:->@%%%%@@@@@%>oO-6%",
"%@%@@@>-%>---@7@@<->@555770:55X.+o+..555@@@@@->@@@@%@@@@@@@@>->>",
"%%%@@@,-%%%@>20-77-7@@@@@55@@5705++++o5@5@@@@@%@@wd8@@<-@%@@@%%%",
"%%>>uwf2@%%@>---570@@5@@5@@5557055+++++5@@@@@@@@%ueu@@<-@%@@@%%%",
"%@@66%3%%yr%8gh-@77<<@5@@7<5@5775++++;;O-:@<>%@@%yeeq8>-@@@@@%%%",
"@>@66@%%@ee88jh2@@@<<5@55<-7557++X++70;.-75--@@@@yeee%>-@@@@@%%%",
"O*@88@@@*%%weew>@7@005:;<<7:5570++oX.;.+77@@@@%%@weew%@8@<<>@%%%",
" >>@@@%%%%%weew@@@@<<570-<555570o++...X+5@5@@%@@@ueew@@@@<-@%%%%",
". O@@@@%%%@kww8>@@<<7+7l<:@5o577ooXXX.OX55+@@@@@@@uwy>>>@@>@*%%%",
"   @@@%%@@%66@%%@<075+++55555++++X.o+...+++5@@@@@%@@%%>-@@@oo@@@",
",,$o@@@@@@@><uuq%>>><+++@:7755+++X.XXXXX++X75@7<@@@uu%>>>>@oo@@%",
"-; o@@@%@%@>8pee@>@-0+o+570:755++X X+++++X.X5@<2@@@ww@%@26@@o%%%",
"-- >>>8%%88%wezz@@u<755o570555++XX X+++++X.XX5>-@@@uu@@@->@>o@@%",
"------6>%weepezj%wpu55555555555+...x;55++++.O@@@@@%@@@@%%@@<-@>%",
"2-----6@%yeezeccyweu5775755557++...;v55+XX+XXo@:@@@@@@@@%@@6,@@%",
"---2-->@%yejjbceeeeu@@++.X++X.X+...7555+...XX.;0@@>@@@@@%%@@@@@@",
"-----2>@@wpjjbzeeeeu@o++.X++X.X+...755++...XX.;-@@@@@@@@@@%@@@@%",
"*>2>@%>%%%%tc2>@%%@@@@5++++O... .X+o5++++555+X+o@@@@@-<@@%%%%%@%",
"*,2%%%>@@@%wc26%@%%%@@X+o++......X+n5+o++57+++oo@@@@>->>%%%%%%%%",
"2m%%%%>2%3%ecjce-6@@@@5@-;....X+++++++++5@@++oo@7,-:@5@%>>-%3%>%",
"26%%%%62%%%wejcp-<@@%@5@04 ...X+++++++++55@+++5@7<0:@@@%@>2%%%%@",
"26%=yww3%%%6kcep-<,:8<>@77+..XX+55++++++55@o7.7@oO4O@@@@@>>61@%%",
"26%%8ew%%%%6heep2--@>07@+ooO.+++55++++++557@o.O@oO o@@@@@@@,g%%%",
"26%%yew%%>%8>uuu8>>@@X7;++oXXXXs.X++++55@5@@747+OXo@%@@@@@%%%%%%",
"26%=ycy%%>%%%@@@@@@@@+O.++++X.X+.X++o+o@@@@77-7+ Xo*%%@%@@>@%%%=",
"663%yw8%%>>@@@>>@@@@oX. OXXXX.Xo.X+7oo@@@o5o>-<;Ooo@@@><@>6%%%%%",
"%6-8%%%%@>%@@@6-@@%@7 .....XX.X+.Oo7@@@55o+@>--0@oo@@@62@>->%=%=",
"62-63%%%%%%%@@>>@%@>O. ..OOOXXXO.O.Oo57@@@;@:-->@@;@o@62666%%%%%",
"22226%%%%%%%@@@@@@@O  ...OoO.+X.... O7@7@>->>->%@>-Oo@>226%%%%==",
"222,,%%31%%%@@@@>@@O. ...ooOOoXO.. .O@@7o>->>,<@@<->@@>663%%%=%=",
"2M >82222>%@@ooo Oo  ...+o+o++o++X.Xooo@+;->%@@@@@@o@@@@%=%%%=%=",
"2,M3>-2-4>%>>*Oo.O+O....ooXXXXo+XX.Xo+5@o><<>>:>@%%>o@@%%%%%%%13",
"2222--22         Oo..  . 40...X+.O@o+oo%@@@,----%%%6,@@@%*%=%=32",
"22-222--     .   Oo..   .4- . X+ O@@oo@%@@@,2222%%%-6@%%%%wdr%9N"
};
