/* XPM */
static char *da747a5f60ca4967ede815b75182213dDmd6uQKNe8ActEy6[] = {
/* columns rows colors chars-per-pixel */
"64 64 172 2 ",
"   c None",
".  c #0C0602",
"X  c #110905",
"o  c #1C0C05",
"O  c #140D0A",
"+  c #240E06",
"@  c #271007",
"#  c #281107",
"$  c #241109",
"%  c #2B1309",
"&  c #2E190E",
"*  c #31150A",
"=  c #371B0F",
"-  c #381A0A",
";  c #291711",
":  c #2D1B14",
">  c #2D1F19",
",  c #251C19",
"<  c #351C13",
"1  c #311F19",
"2  c #2E221D",
"3  c #3A2116",
"4  c #33241E",
"5  c #39241B",
"6  c #332621",
"7  c #342925",
"8  c #3B2B24",
"9  c #362C2A",
"0  c #3B2E2A",
"q  c #39302E",
"w  c #3E3531",
"e  c #49240D",
"r  c #54290F",
"t  c #4E2811",
"y  c #5A2D10",
"u  c #603114",
"i  c #723B19",
"p  c #442D22",
"a  c #48342C",
"s  c #553422",
"d  c #5F3E2B",
"f  c #453A37",
"g  c #463D3B",
"h  c #493E3B",
"j  c #513D36",
"k  c #653B22",
"l  c #4C413D",
"z  c #54413B",
"x  c #7F4824",
"c  c #73482D",
"v  c #7F4A29",
"b  c #4D4442",
"n  c #514642",
"m  c #544B4A",
"M  c #584E4C",
"N  c #5D5453",
"B  c #614F49",
"V  c #65534D",
"C  c #795B49",
"Z  c #605756",
"A  c #635956",
"S  c #645C5B",
"D  c #685F5E",
"F  c #6B625E",
"G  c #716057",
"H  c #6C6362",
"J  c #6E6867",
"K  c #706766",
"L  c #716967",
"P  c #756C6B",
"I  c #796F6D",
"U  c #7B6D65",
"Y  c #79716F",
"T  c #7D7473",
"R  c #83451E",
"E  c #9E501D",
"W  c #AC571E",
"Q  c #BA5D1E",
"!  c #9A592E",
"~  c #815438",
"^  c #915F3F",
"/  c #A55B2A",
"(  c #BA5F21",
")  c #B66027",
"_  c #B96125",
"`  c #B9642B",
"'  c #B3632D",
"]  c #AE693B",
"[  c #B86730",
"{  c #B76A36",
"}  c #B86833",
"|  c #B76D3B",
" . c #886B5A",
".. c #B66F40",
"X. c #AB7049",
"o. c #B67143",
"O. c #B5744A",
"+. c #AC7857",
"@. c #B37953",
"#. c #B37E5B",
"$. c #83746F",
"%. c #807776",
"&. c #817877",
"*. c #857C7B",
"=. c #887F7E",
"-. c #89807F",
";. c #B28162",
":. c #B1876D",
">. c #AF8D77",
",. c #A58C7C",
"<. c #B08B73",
"1. c #B08E78",
"2. c #AF907C",
"3. c #8C8482",
"4. c #908786",
"5. c #928987",
"6. c #948B8A",
"7. c #988F8D",
"8. c #9A908E",
"9. c #9D9493",
"0. c #9F9897",
"q. c #AE9586",
"w. c #AD9B8F",
"e. c #A59183",
"r. c #A19795",
"t. c #A29897",
"y. c #AC9E96",
"u. c #A59C9A",
"i. c #A99E9C",
"p. c #A7A09E",
"a. c #AAA19F",
"s. c #AAA2A1",
"d. c #ACA2A0",
"f. c #AEA3A1",
"g. c #ACA2A1",
"h. c #AFA4A2",
"j. c #ACA4A2",
"k. c #AEA6A5",
"l. c #ADA3A1",
"z. c #AFA8A7",
"x. c #AAA8A6",
"c. c #AEA9A8",
"v. c #B0A5A3",
"b. c #B1A6A4",
"n. c #B3A7A5",
"m. c #B1A6A5",
"M. c #B1A6A4",
"N. c #B3A8A6",
"B. c #B0A8A6",
"V. c #B4A9A7",
"C. c #B4A8A6",
"Z. c #B1AAA9",
"A. c #B6ABA9",
"S. c #B5ABA9",
"D. c #B3ACAB",
"F. c #B7ACAB",
"G. c #B3ADAC",
"H. c #B5AEAD",
"J. c #B6AAA8",
"K. c #B8ADAA",
"L. c #BAAFAD",
"P. c #B9AEAD",
"I. c #B9ADAA",
"U. c #B6B0AF",
"Y. c #BDB1AE",
"T. c #BEB3B1",
"R. c #BFB6B5",
"E. c #BCB4B2",
"W. c #C0B4B2",
"Q. c #C2B6B4",
"!. c #C5B8B6",
"~. c #CCBFBD",
/* pixels */
"                                                                                                                                ",
"                                                                                                                                ",
"                                                                                                                                ",
"                                                                                                                                ",
"                                                                                                                                ",
"                                                                                                                                ",
"                                                                                                                                ",
"  G.k.                                                                                                                          ",
"3.0.p.R.Z.                                                                                                                      ",
"4.9.7.u.G.x.                                                                                                                    ",
"  4.5.3.t.k.H.U.                                                                                                                ",
"    6.&.9.0.0.H.c.                                                                                                              ",
"      3.7.8.p.c.G.E.H.                                                                                                          ",
"        3.7.9.u.c.k.c.s.G.                                                                                                      ",
"          =.6.u.x.G.c.0.Z.9.                                                                                                    ",
"            3.3.7.t.0.p.z.0.D.s.                                                                                                ",
"              3.4.9.p.H.8.c.k.s.z.                                                                                              ",
"                -.6.-.8.9.p.x.x.s.9.H.                                                                                          ",
"                  3.4.0.0.u.0.u.G.k.k.G.j.                                                                                      ",
"                    *.-.4.0.p.p.p.k.z.E.R.H.                                                                                    ",
"                      3.3.9.8.s.0.8.u.u.Z.k.u.u.                                                                                ",
"                        T 3.*.3.0.5.7.7.r.u.t.k.s.                                                                              ",
"                          -.6.6.6.8.9.u.0.B.u.9.j.R.F.                                                                          ",
"                            T T 3.3.8.j.i.i.B.0.u.0.i.P.u.                                                                      ",
"                              T 3.4.0.p.k.9.u.u.9.9.t.u.i.u.                                                                    ",
"                                T 3.8.u.s.7.r.u.s.P.k.9.r.j.A.L.                                                                ",
"                                  T T 8.9.t.a.E.v.i.r.i.8.i.v.v.E.                                                              ",
"                                    T -.6.r.9.0.P.F.u.u.t.u.r.t.v.i.h.                                                          ",
"                                        -.3.4.r.6.H.i.P.P.v.u.7.C.F.Q.C.                                                        ",
"                                        T &.6.s.7.i.t.i.i.u.6.7.i.v.j.I.Q.E.                                                    ",
"                                            3.7.r.r.r.v.k.V.u.6.r.v.i.i.a.C.i.a.                                                ",
"                                            T *.4.6.i.t.v.v.a.t.r.i.A.v.F.v.i.t.I.                                              ",
"                                                %.&.r.4.7.t.r.i.u.t.i.v.C.i.M.v.V.d.i.                                          ",
"                                                  P 5.7.t.t.7.9.a.C.u.7.i.t.r.M.W.I.Q.A.                                        ",
"                                                    %.*.4.r.j.P.A.v.a.r.8.r.M.C.C.J.W.n.!.L.                                    ",
"                                                      Y I 4.9.r.9.5.C.a.t.5.r.f.I.!.I.n.A.Q.L.~.                                ",
"                                                        L %.*.9.t.u.t.i.v.y.9.v.I.I.I.n.C.f.u.t.W.                              ",
"                                                          I *.&.7.r.t.u.r.r.d.V.J.f.C.Q.t.n.J.i.Y.I.W.                          ",
"                                                            I T %.4.=.6.u.v.I.J.i.n.f.W.v.C.r.i.i.i.A.!.                        ",
"                                                              K I I *.7.i.C.v.r.f.r.7.t.y.f.n.r.j.I.t.I.i.I.                    ",
"                                                                D K %.4.6.9.u.i.9.9.9.t.v.I.W.f.v.v.t.J.t.i.A.                  ",
"                                                                  A A I T 3.3.u.-.=.i.C.v.C.y.t.u.i.B p = < a A $.              ",
"                                                                    Z D L I T 3.4.4.r.t.t.t.r.4.$.j * & < 4 1 % # % +           ",
"                                                                      N N D L I *.4.*.7.8.r.*.S - * * % : 6 9 9 7 6 ; ;         ",
"                                                                        M N S H %.*.T 3.4.3.j 3 * * * % % & 4 9 9 > $ 9 2       ",
"                                                                          m M Z A K P I 3.*.p * * % % : ; $ > 6 b n 7 k F       ",
"                                                                            b m Z A H K %.I < * * % % % % : $ 5 h T ~ @.s.G     ",
"                                                                              b m M Z H D m * * % % # # + $ : s ! ^ O._ _ W u   ",
"                                                                                b b m N m < * % # # # + $ 6 : U ;.` ` <.#.} /   ",
"                                                                                  g b b j * * % # # @ + 1 h h r.j.@.( ;.a.2.X.6.",
"                                                                                    g g 8 % % % @ + + + = R %.i.{ O.1.#.@.| j.4.",
"                                                                                      f p % % $ @ + + + i ( @.@.( | <.h.{ ( { p ",
"                                                                                        0 % # + + + # R E O.{ Q Q Q _ ;._ | ] & ",
"                                                                                          $ # + + + * +.o.( [ ( Q ( O.} | q.C X ",
"                                                                                            + $ + o r ( ( ` { ( ( [ w.q.O.{ e   ",
"                                                                                              $ o o y ( | ;.O.` ( <.<.;.| ) t   ",
"                                                                                                o o & / O.| } #._ O.w.| `  .    ",
"                                                                                                  o o x #.' w.#.1.a.:.;.8.a     ",
"                                                                                                    O L T p.x.;.@.7.,.s         ",
"                                                                                                      b 2 b l c i 6 J           ",
"                                                                                                          X . O 2               ",
"                                                                                                                                ",
"                                                                                                                                ",
"                                                                                                                                "
};
