/* XPM */
static char *f490a2ba3ce64ad4eb4f26f42d1cfc22ZJk8v8JhaaUfb5Ni[] = {
/* columns rows colors chars-per-pixel */
"64 64 203 2 ",
"   c None",
".  c #351913",
"X  c #111E33",
"o  c #0E2238",
"O  c #14293E",
"+  c #1C273A",
"@  c #2C2832",
"#  c #37323E",
"$  c #362329",
"%  c #471A12",
"&  c #582219",
"*  c #73280E",
"=  c #6A2619",
"-  c #6B2A1D",
";  c #672619",
":  c #752C14",
">  c #742F19",
",  c #752812",
"<  c #67331C",
"1  c #753114",
"2  c #79371A",
"3  c #75300F",
"4  c #562C28",
"5  c #53332B",
"6  c #583529",
"7  c #4B3334",
"8  c #563B32",
"9  c #553F3C",
"0  c #482A2B",
"q  c #652C22",
"w  c #6B2C23",
"e  c #683829",
"r  c #773A24",
"t  c #693A30",
"y  c #5B413A",
"u  c #7C432B",
"i  c #7E4327",
"p  c #644939",
"a  c #794A39",
"s  c #7E533B",
"d  c #142C43",
"f  c #192D44",
"g  c #1C3345",
"h  c #15334D",
"j  c #1B354B",
"k  c #1D3C54",
"l  c #14375C",
"z  c #15395E",
"x  c #1D3D5A",
"c  c #193753",
"v  c #233A4E",
"b  c #29384B",
"n  c #353C49",
"m  c #213C54",
"M  c #283D50",
"N  c #212E42",
"B  c #163A60",
"V  c #193D63",
"C  c #4D3E43",
"Z  c #1F4057",
"A  c #1E425B",
"S  c #224057",
"D  c #23445D",
"F  c #2D4255",
"G  c #374555",
"H  c #1D4463",
"J  c #1C4469",
"K  c #1F4A67",
"L  c #1F5270",
"P  c #214663",
"I  c #234A64",
"U  c #23466C",
"Y  c #244D6A",
"T  c #284C64",
"R  c #24516D",
"E  c #244D71",
"W  c #284F73",
"Q  c #255474",
"!  c #295475",
"~  c #265876",
"^  c #285976",
"/  c #2A5579",
"(  c #265B7B",
")  c #2A5C7C",
"_  c #255578",
"`  c #305675",
"'  c #2A617F",
"]  c #444248",
"[  c #544647",
"{  c #444A55",
"}  c #883B1C",
"|  c #853D25",
" . c #95421E",
".. c #82452E",
"X. c #894529",
"o. c #914324",
"O. c #9B492A",
"+. c #994626",
"@. c #874B35",
"#. c #975B3B",
"$. c #8F4D30",
"%. c #A74D2B",
"&. c #AD542E",
"*. c #A4512F",
"=. c #A25638",
"-. c #8C5A44",
";. c #935F42",
":. c #A75B47",
">. c #B35443",
",. c #94634B",
"<. c #9B6849",
"1. c #9B6D54",
"2. c #8E634D",
"3. c #A36244",
"4. c #A76A46",
"5. c #A56B4A",
"6. c #B6754D",
"7. c #A96C55",
"8. c #A37452",
"9. c #AC7756",
"0. c #B87C57",
"q. c #B36A4A",
"w. c #9F7560",
"e. c #A37B63",
"r. c #C95848",
"t. c #C87256",
"y. c #CC6651",
"u. c #B5835B",
"i. c #AA825D",
"p. c #AB8469",
"a. c #B88A63",
"s. c #B99679",
"d. c #B39271",
"f. c #C88C5C",
"g. c #D2876A",
"h. c #C09365",
"j. c #C3956A",
"k. c #CA9C6A",
"l. c #C49C74",
"z. c #C59B77",
"x. c #D89978",
"c. c #CD896A",
"v. c #CBA57B",
"b. c #CDA97D",
"n. c #CBA47B",
"m. c #D0A97E",
"M. c #2C5E81",
"N. c #2C6384",
"B. c #2E6689",
"V. c #2D6A8B",
"C. c #316285",
"Z. c #316689",
"A. c #326B8D",
"S. c #2E6E92",
"D. c #326E91",
"F. c #2F7293",
"G. c #2F7499",
"H. c #357596",
"J. c #337394",
"K. c #32759A",
"L. c #347699",
"P. c #367899",
"I. c #367D9E",
"U. c #357A9C",
"Y. c #387C9D",
"T. c #387696",
"R. c #367DA1",
"E. c #367EA1",
"W. c #387EA1",
"Q. c #3B809F",
"!. c #3780A3",
"~. c #3981A2",
"^. c #3B83A4",
"/. c #3D88A7",
"(. c #3B87A9",
"). c #3D8BAA",
"_. c #3788A9",
"`. c #3E91AF",
"'. c #3D91B0",
"]. c #418CAB",
"[. c #4193B1",
"{. c #4290AF",
"}. c #BD9E83",
"|. c #BFA087",
" X c #C89F81",
".X c #CCAA84",
"XX c #CCAD8D",
"oX c #C7A786",
"OX c #DCA181",
"+X c #D1AB82",
"@X c #D9AD89",
"#X c #CFB08E",
"$X c #D5B38C",
"%X c #D1B695",
"&X c #DABB96",
"*X c #D4B99A",
"=X c #DABD9A",
"-X c #D2B69B",
";X c #CFAE91",
":X c #D9BFA2",
">X c #DDC29E",
",X c #DBC3A4",
"<X c #E1C6A3",
/* pixels */
"M K D D R D Q D D Q D I T D Q D D R D T I I Q S S Y j S m k P j m I j S Z S I j S T m I S D Y v D D v T m D T v D T m I v D S   ",
"K ! ) V.) Z.' H.J.C.N.N.N.N.N.H.J.C.C.N.V.) B.F.J.' B.' N.! ( N.A.Q N._ V.) V.J.J.C.A.~ A.C.D.T.T.C.D.( J.M.T.F.H.' A.~ V._ ~   ",
"m ' ' Y.J.D.A.A.C.A.A.P.P.A.A.A.C.D.D.J.U.C.T.C.A.A.J.D.J.Y / G ' ! A.B.T.C.Y.( P./ H.L.^.Q Q.Q T.( P.J.W.E W.! Q.E Y.V.P.Y '   ",
"P ) I.V z L.L.P.P.L.^.z z I.H.P.L.K.U.B J (.P.H.P.J.!.A J C.T C ` ) C.c Y W.^.A.W.L.H.V _ ^.!.A.I.Q.A.z M.W.Y.M.I.R.A.V N.F.'   ",
"Z V.~.J J I.R.D.D.R.).V J ^.R.D.D.W.W.V J /.R.D.H.L.W.l x ~ F $.G R ) h J R.W.A.W.R.L.B _ (.W.B.P.~.A.B ( !.R.Z.R.U.B.z M.F.~   ",
"I ( ! (.^.A.C.H.H.Z.C._./.C.A.H.D.D.D.].].M.L.B.J.M.N.A.N.j a %.w v Y Q N.! L.M.W.M.Y.L./.M./.M.^.N.~.P._.M.]./ ].M.^.P.^.! N.  ",
"L V.Y.(.L.^.W.[.'.~.^.R.I.^.^.).'.W.(.J.R.L.Y.W.R.N.N.Y A y &.=.: 4 S x R Q D.(.(.A.W.D.(.D./.{.{.J.^.Z./.A.].'.[.A./.V.(.N.V.  ",
"k J.! ) L./ _.M.M.)./ N.S./ )./ M.).E B.M.W G.A P ^ f n r o.#.z.-., : n v S _ c M.L.U U.M.J.).U H.~./ (.M.U.^.W ^.W./ ~./ J.(   ",
"I J.L.Y.W.Y._.^.^.).Y.W.!.^.[.^.W.[.Y.L.V.N.N.I G y > 1 | 9.&X$X,Xe.r * > 8 G S ^ A.Z.U.U.].'.D.^.(.D.(.J.].).D./.].A.^.D.I.N.  ",
"K ! ! W.Y.Z.M.^.Y.C.M.R.!.M.C.^.U.N.) N._ m 7 - 3 ..1.s.=X=X$X  .Xj.j.a.<.u 2 } y N R ( U.P Y.W./._ U.D.^.U ^.^.].U ^.S.Y.U N.  ",
"k A.^.N.) /.(.A.Z.R.^.N.N.R.U.N.) D.B.H m 4 > ;.u.l.b.b.v.c.      ,.5.u.z.+X.Xp.o.X.D A B.A.Y.H D.W.W.M.^.Y.^.U Y.Y./.M.^.A.N.  ",
"Y _ P.V B D.Z.^.^.D.W.z l D./ B.) H L o $ , s.z.a.9.3.:.              @.3.0.@X>X*X=.t o d R Q A.V.M.) l E U.U._.!.D.) l _ V.)   ",
"Z V.P.P.H.^.R.C.C.~.~.B.N.B.~ m n C [ t w e.,Xp.s                           q.g.>XoX| 4 7 C T j E N.J./ W.P.^.U W.Y.^._ Q.J.N.  ",
"R ~ ) U.J.A.C.).).Z.M.V._ Z b t 1 r ,.7.9.n.d.                                  g.v.<.2.-.u 3 e { k ~ M.U.E ].W.].U Y.S.P.P N.  ",
"D L.T.P.R.L.`.Y.Y.).D.) Y n 3 u  X,X<X&Xl.u.p                                     0.a.*X*Xz.i.$.} [ I ) V.Y.`.L.[.).P.^.H.Q.N.  ",
"k H.C.A.I.Z.).D.Z._.! Y F , @..X@X X7.=.                                              2.5.q.a.b.5.o.# _ Y D.(.W Q.Y.Q (./ F.'   ",
"Y N.A.R.L.P.T.).).D.M.R 5 > l.l.,.w                                                         q.m.%X3.a m V.Z.)._.[.T.^.J.^.A.B.  ",
"S N.N.I.L.P.J.A.N.V./ D q 7.n.8.                                                              t.&Xs.O.n N.E W.C.]./ (.L.^.W N.  ",
"P ) ~.J B L.S.D.V.N.' + ; s.%Xp                                                                 @X;XO.@ A V.S.) D.U.B.B N.G.(   ",
"Z V.~.E J J.N.! Y K K @ & p.XX                                                                  x.oXO.@ h R Q R B.S.M.B N.F.)   ",
"P ( ! R.S.Q D T C 8 2 t ..9.i.                                                                  t.h.| 4 6 5 F v / P J.J.~.Y N.  ",
"R D.T.J._ Q G 1 r 8.s.=X*X+X6.                                                                  9.l.l.a.p.e.r 2 { I N.N.R.A.N.  ",
"m J.Y Y R # : #.z.z.a.:.                                                                              3.0.+X*X1.} [ j C.Y S.(   ",
"K V.A.C.D 4 - -Xj.;.                                                                                      t.=X,X#.o.S M.B.I.N.  ",
"K ^ Y ~ M , e.:X0.&                                                                                         x.<Xs. .[ A B.J N.  ",
"k N.B.A 0 * }.=Xs                                                                                           y.>X$Xo.@.c N.N.'   ",
"A Q N.d 0 : XX>Xt                                                                                           r.>X$X#.+.o A ' (   ",
"Z N.) A q r XX=X5                                                                                           r.@X@X<.%.d ~ N.)   ",
"R Q P I - ..#X*X5                                                                                             OX+X3.&.g ~ x '   ",
"A V.~ I - ..;X%X8                                                                                             OX+X4.&.Z _ J.(   ",
"Z V.R Z q ..XX%X8                                                                                             OX+X5.&.Z x N.~   ",
"Y ( I I - ..$X%X8                                                                                             OX+X4.&.j ' ~ N.  ",
"k ) R I w ..#X%X8                                                                                             OX+Xq.&.v ( I )   ",
"D Q ) d = u #X%X8                                                                                             OXm.4.&.X I N.(   ",
"Z ' N.h = ..#X%X8                                                                                             OX+X4.&.o I N.(   ",
"H R Z Y w ..#X%X8                                                                                             OX+X4.&.j ) Y )   ",
"I V.N.R - ..XX%X8                                                                                             OXm.4.&.j ) / N.  ",
"j V.Z j q ..#X%X8                                                                                             OX+X4.&.k k N.(   ",
"I V.N.Y - ..$X*X8                                                                                             OX+X4.&.k _ J.N.  ",
"A R x T w ..XX&X8                                                                                             OX+X4.&.g _ D '   ",
"k N.' c = ..#X%X8                                                                                             OXm.4.&.f ^ N.(   ",
"A R ) O = ..#X%X8                                                                                             OX+X4.&.X Z ( ~   ",
"k ' Q P - ..#X%X8                                                                                             OX+X4.&.f ~ M.)   ",
"Y Q I I - ..#X%X8                                                                                             OX+X4.&.j ~ D '   ",
"Z V.Q I q ..$X%X8                                                                                             OX+X4.&.k R V.(   ",
"Z V.Y Z q ..#X%X8                                                                                             OX+X4.&.k x N.~   ",
"L ^ I T w ..#X%X8                                                                                             OX+X4.&.v ' ) N.  ",
"k ) ! I w u #X%X8                                                                                             OX+X4.&.c ) I N.  ",
"D R ~ O = ..#X%X8                                                                                             OX+X5.&.X P N.~   ",
"Z N.N.h - ..#X%X8                                                                                             OX+X4.&.X I N.~   ",
"I R Z I - ..#X%X8                                                                                             OX+X4.&.j ( P N.  ",
"Y N.) I w u #X%X8                                                                                             OX+X4.&.j ) ~ N.  ",
"k V.D c - ..#X%X8                                                                                             OX+X4.&.k c N._   ",
"K N.' R - ..#X%X8                                                                                             OX+X4.&.k ^ J.N.  ",
"A R Z T - ..#X%X8                                                                                             OX+X4.&.j ~ x '   ",
"Z N.N.c = ..#X%X8                                                                                             OX+X4.&.O Q N.'   ",
"K Y ' O ; ..#X%X8                                                                                             OX+X4.&.X k ( ~   ",
"Z ( R A - u #X%X8                                                                                             OX+X4.&.g ~ ~ ~   ",
"A K Z Z ; u #X#X8                                                                                             OXm.4.%.O R k _   ",
"F A Z g & u oX#Xy                                                                                             x.m.3.+.v k I I   ",
"        % i n.oX                                                                                              m.v.#.}           ",
"        . e l.b.                                                                                                k.#.>           ",
"        . < h.                                                                                                  f.$.=           ",
"        . 5                                                                                                       $.;           "
};
