/* XPM */
static char *_8fedf70811b4612c1815224c209c39aBtWu9m7rBTqAlteU[] = {
/* columns rows colors chars-per-pixel */
"64 64 240 2 ",
"   c None",
".  c #050404",
"X  c #0A0506",
"o  c #070608",
"O  c #0A0709",
"+  c #0D090C",
"@  c #06090D",
"#  c #120605",
"$  c #1E0504",
"%  c #120B0D",
"&  c #1C0C0B",
"*  c #1A0807",
"=  c #0C0C13",
"-  c #0A0E1C",
";  c #070A13",
":  c #130E13",
">  c #170F15",
",  c #0B121D",
"<  c #141115",
"1  c #1C1314",
"2  c #15131B",
"3  c #1A141B",
"4  c #1B191E",
"5  c #1D100E",
"6  c #230704",
"7  c #280B07",
"8  c #340B05",
"9  c #390E07",
"0  c #2C120C",
"q  c #23110C",
"w  c #35130B",
"e  c #3D140A",
"r  c #231414",
"t  c #231A1C",
"y  c #2C1A18",
"u  c #3D1A12",
"i  c #351B19",
"p  c #3C221C",
"a  c #0C1224",
"s  c #0C162A",
"d  c #0E1A2F",
"f  c #071227",
"g  c #141523",
"h  c #151925",
"j  c #1B1B23",
"k  c #141A2C",
"l  c #1B1D2A",
"z  c #171624",
"x  c #0E1B33",
"c  c #0E1E3A",
"v  c #061832",
"b  c #121D33",
"n  c #141E35",
"m  c #070F21",
"M  c #221D21",
"N  c #2B1F22",
"B  c #1D212C",
"V  c #1C2029",
"C  c #1C2333",
"Z  c #12223C",
"A  c #1B2539",
"S  c #1A2439",
"D  c #0E203E",
"F  c #2B2325",
"G  c #22232C",
"H  c #28242A",
"J  c #332523",
"K  c #382828",
"L  c #222533",
"P  c #252935",
"I  c #252B3A",
"U  c #282A36",
"Y  c #332D34",
"T  c #3A2E31",
"R  c #393337",
"E  c #2B313F",
"W  c #42160B",
"Q  c #4C1C0B",
"!  c #451608",
"~  c #441E12",
"^  c #491D10",
"/  c #511F0D",
"(  c #54220E",
")  c #4C2315",
"_  c #43241C",
"`  c #4B261B",
"'  c #522413",
"]  c #55291A",
"[  c #5B2C1C",
"{  c #5A2816",
"}  c #612E1A",
"|  c #67331E",
" . c #422624",
".. c #4B2A21",
"X. c #452C27",
"o. c #582F22",
"O. c #4B332D",
"+. c #4A3128",
"@. c #5A352C",
"#. c #573428",
"$. c #4C3B3B",
"%. c #453636",
"&. c #583B34",
"*. c #452F30",
"=. c #643423",
"-. c #643A2C",
";. c #6C3D2C",
":. c #683825",
">. c #723E2A",
",. c #643C32",
"<. c #5A433E",
"1. c #75422E",
"2. c #6C4234",
"3. c #6D4539",
"4. c #69443C",
"5. c #754534",
"6. c #71473A",
"7. c #754A3C",
"8. c #7B4D3C",
"9. c #794835",
"0. c #0F2443",
"q. c #132543",
"w. c #1A2944",
"e. c #152B4B",
"r. c #1B2D4A",
"t. c #152846",
"y. c #142E51",
"u. c #182F51",
"i. c #1C3352",
"p. c #183256",
"a. c #1D314F",
"s. c #242E43",
"d. c #22344E",
"f. c #2B3447",
"g. c #363846",
"h. c #233754",
"j. c #453D45",
"k. c #3D4254",
"l. c #3F517E",
"z. c #494148",
"x. c #544445",
"c. c #584747",
"v. c #4A4B58",
"b. c #594B53",
"n. c #5B595A",
"m. c #475159",
"M. c #654D47",
"N. c #744E43",
"B. c #7A4E41",
"V. c #69544C",
"C. c #7C5143",
"Z. c #7C5549",
"A. c #75564C",
"S. c #685555",
"D. c #7B5D56",
"F. c #755A56",
"G. c #7A615C",
"H. c #676059",
"J. c #4D5169",
"K. c #685D6F",
"L. c #5B6169",
"P. c #696867",
"I. c #7C6464",
"U. c #796569",
"Y. c #776B74",
"T. c #767A73",
"R. c #824F3B",
"E. c #82513D",
"W. c #8B523E",
"Q. c #835544",
"!. c #855846",
"~. c #8A5A47",
"^. c #845B4C",
"/. c #8B5D4B",
"(. c #865745",
"). c #875E51",
"_. c #945C44",
"`. c #93624E",
"'. c #8C6253",
"]. c #82635C",
"[. c #8D665A",
"{. c #896559",
"}. c #926554",
"|. c #946A5B",
" X c #9A6B59",
".X c #8F614E",
"XX c #A26D59",
"oX c #876A68",
"OX c #946E62",
"+X c #936E68",
"@X c #95726B",
"#X c #997265",
"$X c #816D73",
"%X c #85737C",
"&X c #977975",
"*X c #88796E",
"=X c #A77A69",
"-X c #A37C73",
";X c #9A8B74",
":X c #B28479",
">X c #AA8277",
",X c #545C92",
"<X c #717591",
"1X c #5876AE",
"2X c #8B7B87",
"3X c #7B959C",
"4X c #5A92B5",
"5X c #6B98B3",
"6X c #72A6B8",
"7X c #6F99C8",
"8X c #6FB0D3",
"9X c #64A9E8",
"0X c #77B6E6",
"qX c #5C93D6",
"wX c #75C7EF",
"eX c #79C1DB",
"rX c #958999",
"tX c #908B8F",
"yX c #B58D82",
"uX c #AE9090",
"iX c #9B95A8",
"pX c #9A99B7",
"aX c #8C91A5",
"sX c #A39CB3",
"dX c #AC99A9",
"fX c #8CABB0",
"gX c #ACA4BC",
"hX c #C2BCA6",
"jX c #98B9CD",
"kX c #AAAAC6",
"lX c #ACB3CF",
"zX c #8CB1E8",
"xX c #96CBD3",
"cX c #8DC9DB",
"vX c #95D6EF",
"bX c #95E3FD",
"nX c #B3EDF6",
"mX c #ABC3EF",
"MX c #CED9D5",
"NX c #D6E8E5",
/* pixels */
"                                                                                                                                ",
"                                                            V 4 4 V j j V H                                                     ",
"                                                    V V 4 < % : , 2 4 V U g.l.4XzX                                              ",
"                                                H 4 4 4 j 4 4 V V G H Y j.,X,X1X7XzXmXmX                                        ",
"                                            4 2 2 < 2 4 V C B C H g.j.v.J.J.K.<X<X2XpXpXlXlX                                    ",
"                                          < < : = : , V V B I R g.j.b.b.K.K.K.$X%X2X2XpXpXpXkXlX                                ",
"                                        < < + = < < < : 4 H Y E j.j.b.K.F.G.].$X$X2X2X2XrXiXsXgXlX                              ",
"                                    4 < + = < = = < M G H H E R g.j.j.S.K.U.oX$X$X2X2X2XrXrXsXsXkXlX                            ",
"                                    < + = = = 1 1 2 2 2 j H U Y $.j.j.c.S.U.Y.oXU.$X$X2XtXrXdXsXgXgX                            ",
"                                  1 + : + + 2 t 3 2 g g j 4 j H Y R T $.S.F.oXI.oXU.oX$X2XtXrXpXkXkXkX                          ",
"                                1 < > o + + % r 3 > < + + % 2 t T $.x.M.M.A.D.oXD.I.I.U.z.Y J.1X4X7XjXjX                        ",
"                                > % o + O O + < < + 1 J J J X.%.$.$.*.&.M.V.D.S.x.R N j j s m.qX4X4X7X7X0XzX                    ",
"                              1 % o : o X % < : o < M M J J J y y J T <.<.%.T N j M N M N %.L.jX4X6X8XwX7X9X9X9X                ",
"                              > % + o X 1 < O % & < 4 % % 1 < < F %.T t J F 3 j N R j.j.j.Y K.jXfX5XwXwX6X8X9X0X0XvX            ",
"                            1 % % o X 1 % . O q % 3 3 + : 3 j H M.T  .K i p j.c.b.*.K J r > T jX3X6XeX8XvXxX9XvXbXcXnX          ",
"                            1 % o . O + . o . * @ @ + > > % 1 q i p ..o.@.&.....~ i 0 7 r > 3 kXfXxXeX6XvXfX1XcXbXnXpX          ",
"                            % X X O X . o . o + + % % & i K +.+.#.-.;.6.6.6.M.,.,.,. .w y r 1 3X;XMX3XvXvXtXn.fXbXnXNX          ",
"                          1 % o O X . X + o o X 7 > *  .....#.O.o.-.6.6.B.B.B.N.Z.6.+.K K i q T.T.hX;XxXfXiXtXjXbXnXNX          ",
"                          1 % # X . X O X . # p @.,.&.o.@._ _ _ ..@.6.B.B.B.N.N.N.N.4.@...~ 0 x.T.H.;XH.L.2X2XdXxXnXMX          ",
"                          % O X X o . X X . y ] [ @.@.^.).B.-.o.X.@.6.B.Z.^.^.^.^.C.C.N.;.-._ w n.L.H.<.S.-X-X-XdXlXMX          ",
"                          & # X X . X . X & ..{ _.=X| >.|. X/.>.` #.3.C.Z.^.Z.).[.[.}. XXX`.9.} p +.x.x.$X&X@X@XyXyXdX          ",
"                        3 % O # X X . X * 0 #.[ `. X(.{ Q.Q./.Q.3.2.5.7.C.B.Z.A.{.OX X=XXX>X>X>X;X;X>X@X8.|.yX:X:X=XyXgX        ",
"                        1 % . . X . . X * q o.} XX_.{ =.} >.B.B.8.3.6.3.7.B.7.4.^.[.#X=X#X>X:X:XyXuX;X{.>.(.` q 0 i 8.+X        ",
"                        1 . . # . . . X # q _ -.XX}.>.:.^ 6.Q.B.Z.N.8.C.B.7.3.2.8.'.|.OX XXX#X>X:XuX;XOX>.R.&.*.&...-.          ",
"                        % . . . . . . X # 7 i #.E. X`.9.,.N.).C.Z.C.8.C.C.7.3.5.8.^.'.|.}..X~. X=X%X&X@X].G.F.S.S.M.            ",
"                      % . . . . . . . . X 6 0 ` ,./. X(.;.` ^.Z.7.C.C.C.C.B.7.7.C.^./..X/.Q.8.^.D.F.D.b.j.%.H t z Y             ",
"                      O . . . . . . # # X 6 0 ` o.5.7./.`.^.).N.3.8.C.C.Q.Q.C.C.Q.!.)./.!.8.7.N.j.O.T J J F F M z g 2           ",
"                      % . . . . . . # X X * 0 w -.6.,./.OX+X[.N.2.7.8.8.B.Q.C.!.~..X^./.C.7.N.N.O.i M N p j.F.].A.%.j           ",
"                    3 X . X . . . . . . . X 0 w 8 ^ =.R./. X'.o.-.7.9.Q.B.Q.Q.Q.~..X/./.Q.7.N.Z.&.y N  ...@.4.O.X.*.T           ",
"                  + X . . . . . . . . . . X 0 w w W 9 9 W Q W W =.;.>.B.B.Q.(.~..X}.'.).Q.B.6.B.&.T c.F.[.oX+XU.b.T H           ",
"                % O X X . . . . . . . . . # 7 w u ) ^ W W W W ~ [ :.>.9.9.Q.(./..X.X'.'.).N.;.6.O.T V.D.].oX).F.j.j.U           ",
"              + + O X o . . . . . . . . X X * 0 e ` [ =.=.-.o.^ o.[ =.;.>.9.8.(.~.^.[.[.{.C.;.,.+.R F.).].).V.J N H             ",
"            + + + o o . . . . . . . . . . . O 6 w ] o.=.>.5.;.o.' o.] { } :.>.9.W.W.).[.|.'.3.2.p T A.oXG.G.M.1 4 V             ",
"          > + O + o o . . . . . . . . . . . X * w ` } =.;.8.5.=.] ' ' Q / { } :.1.R.8.'.[.{.D.4.O.O.V.G.oX*XF.t 2 4             ",
"        > O o X X o . . . . . . . . . . . . . # 7 ` } :.1.8.8.-.] ) ^ Q ! ! Q ( { | :.5.Z.).G.7.<.J <.<.V.G.H.%.G B             ",
"      > O O o O X o . . . . . . . . . . + . . # 6 ~ =.>.9.8.(.8.=.{ ' ' ! 8 8 ! ! ! / ( } :.1.2.p y J T R R <.R H V             ",
"      % O + o o X o . . . X o . . . . . . + X # * w ] =.9.R.~.~.B.>.| } / ! 9 8 8 8 8 8 w 9 u u 5 5 5 t F t J F M M             ",
"    % X O o X o X + . . . . o o . . . . . . . X * w ) o.>.R.~.}.).Q.>.:.} / ! ! 9 8 8 6 6 $ $ 6 # X + 5 1 1 1 4 4 4             ",
"    X X % o o . X + . . . o . + o . . . o . X X 7 e u ) =.5.(.`. X`.(.>.>.| } / Q ! e 9 8 6 6 6 * X X X O + % = < 2             ",
"  # X o + o O X O + . . . . X X + . . + O . . * 0 u ~ ) [ >.R..X X|.`._.R.1.| { ( Q Q ! 8 6 $ $ * $ $ # + O % = 2               ",
": . . O O o O X X + . . . . . . + + . O + + X # 7 u ~ ~ ] :.8.(.}. X|.}./.R.1.:.{ ( ( / u 7 6 $ 6 * * q                         ",
"+ . X O O X # O . O . . . . . . . . o . X o o : > r ~ ~ ^ =.>.Q.'.OXOX|.}.~.R.1.>.| | :.| ) w 7 $ 6                             ",
". o O O o X % + . + O . . . . . . + + + X o + > j M M i ~ ] ;.Q.`.OX#XOX|.'.(.Q.E.R.9.8.9.2.<.*.i                               ",
"X + X O + X O = X X o . . . . . . X + X . o : 2 j n M B N ) -.Q./. XOXOX[.{.).^.E.!.~.~.!.C.A.S.                                ",
"  + . # + o # + X . X . . . . . . . X + o o : 3 M L L G C F @.9.Q.}.OXOXOX+XOX[.'.^.~.~./.^.{.I.                                ",
"  o o % o . O O X . X . . . . . . . . o : + : 2 l I P L G P K @.8.).}.OXOX+X@XOX'.~.~.~.Q.!.^.I.                                ",
"3 X X + o . . X . . . . . . . . . . . X o + + = j E P P B G L U @.Q.).|.OX#X+XOX[.!.E.8.8.9.7.G.                                ",
"> o O O o X o o . . . . . . . . . . . r % # o + 2 l I I L C L I U &./.}.OX#X@XOX|.^.C.8.9.5.5.G.                                ",
"3 o X + . . . + . . X . . . . . o ; - = = : O O O : M s.L I B G L U &.~.}.|.OXOX|.^.Q.Q.8.5.:.                                  ",
": X O + . . X o . . X X X . + = > 2 z a m - ; o O % : j I I L B l L s.$.~.}.|.OX|.}.~.8.8.5.&.                                  ",
"% X X o . . X + . . . . O % 2 z z z s s s s a - . o + 3 l P I P G L P I $.~.[.OX[.[.'.).Z.N.                                    ",
"1 O X O . . X o . . . o > 3 g 3 z z d s d s d s - o O % = l I P L L L L I x.^.|.OX[.'.^.{.A.                                    ",
"  X X o . . o + . . O > 3 3 z z z z b d x d d d d a - 2 2 = V I P U L l B I g.D.{.{.).Z.A.$.                                    ",
"% o X X . . X X . + > 2 3 z s s z z k b x x c b b b l n C j = l P I L B j l P f.G.'.^.Z.N.4 2                                   ",
"  X X X X . X . = 2 > 3 3 l k b k k k x x x x x d b n A n L 4 + h I U P P j V I f.S.Z.Z.O.o +                                   ",
"  X . X o . o > 2 3 3 3 3 l b k d k x b x c c c c c q.n S s.f.4 = l E E P C j V A g.V.A.Y o +                                   ",
"% X X X X o > 3 3 3 > 3 > z x c x d b x c Z q.t.Z Z x Z I r.S k.G o V E E s.A V V A f.M.C , +                                   ",
"  X . X % > 2 2 3 3 g 3 2 z k b x x x x c Z w.u.Z Z D Z t.r.Z d.g.H @ b s.I I C C I I h.@ s +                                   ",
"  X o % 2 2 2 < 2 3 2 g z z k d b x v c c 0.e.0.D Z e.Z c Z Z r.w.k.R ; d s.f.E A S C S S ;                                     ",
"  X @ : > > > 1 2 g > g z s k k x x x x D t.q.c 0.0.Z i.Z c Z Z w.w.n.R ; C d.I I A S I d., V                                   ",
"  + > : : : > - - , - 2 g a - g d Z d c 0.t.D D 0.y.0.e.r.Z Z D e.t.i.H.P , V d.k.y.i.d.i.d S f                                 ",
"  > > : : : < g j j 3 2 k n k z b v a C t.Z Z Z D 0.y.y.e.i.y.Z Z Z t.k.P.V ; C i.h.i.i.i., c f a h                             ",
"< < : = = = 2 z j g 2 g l k C l C V Z x Z Z S r.r.t.y.y.y.i.a.y.y.D y.i.k.k.x ; Z i.i.a.i.; s v m - h                           ",
"> : : - < 2 g j j 2 < j j j C l V V V t.Z c Z A s.h S y.y.p.A i.p.p.y.i.i.L.d.x @ Z i.r.S @ ; 0.f - -                           "
};
