/* XPM */
static char *f7bcd559474f4067c640ebdc5c9e7322oRH2RAFppGp7n4C9[] = {
/* columns rows colors chars-per-pixel */
"64 64 256 2 ",
"   c #603731",
".  c #24563D",
"X  c #584A37",
"o  c #5A543A",
"O  c #524D34",
"+  c #664B39",
"@  c #774B37",
"#  c #69553B",
"$  c #76563B",
"%  c #6C492C",
"&  c #67512B",
"*  c #172F5A",
"=  c #28325A",
"-  c #031862",
";  c #172766",
":  c #1B3565",
">  c #142B69",
",  c #283769",
"<  c #2C3670",
"1  c #071857",
"2  c #533B43",
"3  c #325552",
"4  c #386B53",
"5  c #264767",
"6  c #33476C",
"7  c #295668",
"8  c #394679",
"9  c #385876",
"0  c #2D5571",
"q  c #157A62",
"w  c #396A66",
"e  c #2C6874",
"r  c #376877",
"t  c #387777",
"y  c #31726A",
"u  c #195460",
"i  c #5A5A46",
"p  c #53554E",
"a  c #6A4D45",
"s  c #695947",
"d  c #765747",
"f  c #6B5955",
"g  c #765B54",
"h  c #784C48",
"j  c #57654A",
"k  c #5A6A55",
"l  c #4C6E55",
"z  c #666449",
"x  c #776549",
"c  c #676757",
"v  c #796658",
"b  c #67745B",
"n  c #797657",
"m  c #464D7B",
"M  c #47567A",
"N  c #4B576E",
"B  c #6F5C62",
"V  c #577868",
"C  c #466778",
"Z  c #59677A",
"A  c #587977",
"S  c #4A7170",
"D  c #696969",
"F  c #796966",
"G  c #697966",
"H  c #7A7569",
"J  c #6A6C78",
"K  c #776C73",
"L  c #697979",
"P  c #787678",
"I  c #3E3D29",
"U  c #855639",
"Y  c #894F35",
"T  c #966A36",
"R  c #865946",
"E  c #8A5B4D",
"W  c #88664A",
"Q  c #93664A",
"!  c #826B5C",
"~  c #886755",
"^  c #976B58",
"/  c #86755B",
"(  c #96745B",
")  c #8A784C",
"_  c #A57257",
"`  c #866B63",
"'  c #887669",
"]  c #977866",
"[  c #887778",
"{  c #957B75",
"}  c #956F64",
"|  c #A57864",
" . c #863E1E",
".. c #348D74",
"X. c #238865",
"o. c #568679",
"O. c #4F8D73",
"+. c #678268",
"@. c #78876B",
"#. c #6A8977",
"$. c #788B77",
"%. c #779579",
"&. c #69947A",
"*. c #61815F",
"=. c #87866B",
"-. c #97836A",
";. c #898679",
":. c #988377",
">. c #88947A",
",. c #999572",
"<. c #A58878",
"1. c #AE8D72",
"2. c #A29461",
"3. c #C3B675",
"4. c #283D87",
"5. c #375088",
"6. c #3A7684",
"7. c #3B6785",
"8. c #475787",
"9. c #545B88",
"0. c #48558D",
"q. c #466786",
"w. c #586888",
"e. c #477987",
"r. c #587888",
"t. c #5B6895",
"y. c #577895",
"u. c #4B7098",
"i. c #666A88",
"p. c #687689",
"a. c #777A87",
"s. c #656B95",
"d. c #697895",
"f. c #747B96",
"g. c #766F88",
"h. c #6F7BA6",
"j. c #5473A6",
"k. c #867B83",
"l. c #8B7F89",
"z. c #3C9688",
"x. c #4A8588",
"c. c #59898A",
"v. c #489885",
"b. c #5A9689",
"n. c #5A8996",
"m. c #5A9698",
"M. c #4A8E96",
"N. c #678887",
"B. c #798789",
"V. c #69978A",
"C. c #789A88",
"Z. c #678A96",
"A. c #788998",
"S. c #669798",
"D. c #779798",
"F. c #59A596",
"G. c #52A58C",
"H. c #75A58D",
"J. c #69A697",
"K. c #79A698",
"L. c #68AC94",
"P. c #5995A3",
"I. c #5587A8",
"U. c #6A88AA",
"Y. c #7B88A6",
"T. c #6999A5",
"R. c #7798A6",
"E. c #7899B6",
"W. c #728DB6",
"Q. c #6BA4A7",
"!. c #78A7A8",
"~. c #79A9B5",
"^. c #76B4B1",
"/. c #59A5A7",
"(. c #7597C8",
"). c #7CA1C3",
"_. c #878589",
"`. c #978788",
"'. c #869A87",
"]. c #949A87",
"[. c #878A96",
"{. c #968C94",
"}. c #879599",
"|. c #999499",
" X c #A48A87",
".X c #A99688",
"XX c #B59988",
"oX c #A5979A",
"OX c #88A48A",
"+X c #88A997",
"@X c #97AB98",
"#X c #8AB39D",
"$X c #9AB59C",
"%X c #96A68B",
"&X c #A8A998",
"*X c #B9A897",
"=X c #A5B49B",
"-X c #B4A890",
";X c #858BA4",
":X c #8898A7",
">X c #979AA8",
",X c #8799B5",
"<X c #979AB4",
"1X c #8C8EAE",
"2X c #A49DA7",
"3X c #87A7A9",
"4X c #97A8A9",
"5X c #88B5A6",
"6X c #97B7A8",
"7X c #87A8B6",
"8X c #98A6B6",
"9X c #97B5B9",
"0X c #89B9B8",
"qX c #A5A6A8",
"wX c #A7B9A8",
"eX c #B5B9AA",
"rX c #A8AAB9",
"tX c #A8B7B7",
"yX c #B6BAB7",
"uX c #B4ABAC",
"iX c #C6AD95",
"pX c #C6B8A5",
"aX c #CBB8AE",
"sX c #C09E88",
"dX c #98C4B5",
"fX c #A8C2AC",
"gX c #B7C4AB",
"hX c #A9C5B7",
"jX c #B7C7B7",
"kX c #B7D2B9",
"lX c #D3D08C",
"zX c #C8C8B8",
"xX c #D5CAB8",
"cX c #C9D1BB",
"vX c #D6D4BA",
"bX c #CEC9AE",
"nX c #91AFC8",
"mX c #ADB7C7",
"MX c #909CC8",
"NX c #C6BCC8",
"BX c #A9C7C4",
"VX c #B7C8C4",
"CX c #BAD4C7",
"ZX c #AECCD3",
"AX c #8CC1CC",
"SX c #C8C9C6",
"DX c #C8D4C7",
"FX c #D8D7C7",
"GX c #DADBD2",
"HX c #D0D0C9",
"JX c #E7DAC8",
"KX c #E6DCD5",
"LX c #F1DDD3",
"PX c #DBE2D2",
"IX c #E8E3D6",
"UX c #E9E6E0",
/* pixels */
"SXFX=XQ n.>XC.6X3X~ '..X XiXLX9X^ :X:Xh.Q oX8.0XuX] +X'.XX X<XnXZXZX<X{.1..X9X-X X,X8 rXT ` t.nX<.'.NXiX<.-XbX$.{ 3XGXs.r.' }.GX",
"n n &.Y K.6X6XjX6X8XR %XxXLXDXH ^ ;Xu.(.9.g.nX|.! A.mX0.S.'. XmXmX*X<.-XwXt.<Xd.=. X0XY.< MXt.!.qX1.SXLXiXXX=X~ 3XfX#.qXc.~ 4XHX",
"}.[.{ R oXW W d H ;.| ! OX=X'.[ ;.4Xe.5.Z.rX X( V.T.A.4XtXqX1.1.@X] } `.mX9X`.}.c.=.XXnXs.i.q.).{  X,.FXFXqX/ 8X#XgX+XK.N.U k c ",
"n.u.7Xx <X^.!.R.R.Y.;X`.~ ^ ] 7XC.oXnXnXnXl._ >X>XrXn.!.sX,.6XmXs.2XbX%XiXBXT.nXqX<X>XmXnXMX).8X/ 9X( F s ~ oXF # R W v ~ B K B.",
"N.9.DXn :X4 +.DX&XOX+X7Xk.3X~.U.Z.H ' |.{ v c [ .X-.8X7X:.VXLXLXrXLXJXGX,.nXAX X{ ] / ~ U ~ } ` =.Q.>X:X`.} 8X:X:X3XD.S.;XP K.r ",
"5XwXV.$.`.K.&X<.<.{.JX6XY.H y.W.u.M.4X' '.w.;XKXIXfX:.nX~ CXKXaXMX1XKXUX=.yX>X-.JXGX8Xy.-.{ 0XV.j.U.r.M.~ 3X6X-XpXHX'.w R.W DXs.",
"D.D.hX'._.4X.X:X#.( JXJX7XF c.(.j.7X~ '.GXHXmXGXLXGX=.oX' DXNXs.<X1X1XKX].2X` eXKXKXNX>XSX-.{ !.d.nXI.' >X3XKX X` F .X$XA.=.'.OX",
"$ _.K.&.` Q.-.:XD.:.LXhX:Xz C c.5 E.v yXKXSX1X;XqXGXjX} 8XZXt.1X XoX8.1X@X`.OXKXaXl.<XNXJXHX] <X7.Z.q.v ,X6XKX{ B.L _ wX[.'.zXC.",
"'.z `.R.B Q..XoXXX2X;X~.F c.:X{.T.T.' @XUX>X<X<Xs.9.6X[. X~.9.f.XX X9.A.|.{ 5X<Xm 1X<Xh.IXGX! !.J.nX!.OX[ 3XSX*X`.;.| 9X[ '.S.{.",
"*XeXb ` <X!.GXUXUX4Xe.7X~ [ ~ @.' >X XB.KXi.{.iX{.0.6XqXQ rX7X0.<X<X;X9X{ _ 4X0.;XXX2X0.GXVX! 9X>X] ] {.l.8Xp.9.aX1.XX#X` A.F z ",
"P ' -X'.` [.3XjX6XK.nX[ W =.xXGX3X! {.;XmX; f.{.2X9.BX`.@.^ 9XVXMX,XdX,X@.Q 9XU.l. Xl.9.tX&X{ XX( eXwX-.^ [.3XZ.FXPXDXK.~ $ @.eX",
"w H *XqXnX[ _.7X>X[ 1Xv A [.JXKXUXVX' k.!.Z.0.h.MX1X0X[ #Xv |.BXMXSX!.' 5XW 9XmX(.<Xs.9.D.[ 2X=.zXJXLXyXZ x ` [.3X6XR.,XE >.*X-.",
"[.1.JXeXMX~.#.~ z K.k.%.tXqX;Xh.h.;X~.' ~ :X6XtX<XSX~.} =XwXW 7Xq.Z.{.=.vX-.7XZXMXh.4X3X>XR 7XjXHXSXNXaXs.$.{ / ^ |.g a.U jXiXK ",
" XqXzX@.,X~.7.V.e.~.x wXFX>XMX<Xh.< !.{.z x |.5XyXd.}.Q zXHXG [ T.3XQ jXJX@.:X7XMXZXR._.W Q !.s.M s.Y.<XKXjXg 7XV s S ~.U jXJX1.",
"r.6 z F !.M.U.E.c.7Xv kXGX2X1X:.<.9.3X:Xk '.) :.7Xe.:X! jX}.+Xg 4X`.>.kXjX>.[.P.U.E.[ n #.[ ^.8 [.{.MXf.JXJX' {.n.u.u.~.v b eX>X",
"$ W _.P G V 7.T.6.^.' C.GXrXw.`.:.,X8X5Xg $XfX=.' ~.>X=.wXA jXC.|.~ jX#.C.+XJ ^.:X} >.bX>.}.6X9.{  X1Xs.JXgX) R.7.(.j.6.T.H s N ",
"R B.~.B.a.$ t Q.R.^.7X! 6XmX< 0.W.W.mXK.] >.bXgX>.v |.>.HX:XVX~.` B.hX>XVXdXP <X~ ].cXxX' R.jXW.<Xf.9.l.zX-._.b.e.T.7.b c ` Y x ",
"V.C 5.7.R.d Q.F W Q [ `.3X!.Q.Q.7XrX:XZ.|.@.=XO.HX#X[ {.0X5.y.:X_ [ P.: R.T.{.' wX].'.kX~ Z.mX8Xh.f.Z.E.].{ 9X:X_.}.m.x >XD.S.7X",
"Z = 5.4.R.~ H b gX=X=./ ^ ^ _.R.P.K.n.6.3Xv gX$XSX0X{ _ [.~.P.' xXXXU.6.P.{ ~ R.FX>.%.=X{ S.m tX6X~.).7X~ qX! =.'.x R.v 7X9 5.0.",
"p.% 8.0.3X$ ) gXJXIXGXqX3X( =.x ! [ [.7X7Xv dXhX> Q.] bXXX_.D.*X+XSXl.W..XxX| T.y.;XJX>.|.S.R.R.[.[ { Q 8XdXcXPXJXwX~ A.nX9 E.a ",
"d.' = 0 ,X$ A yXFX>Xi.< Z.E.W H.wX].n ! [ ' R.T.T.~.{ dXhXpX<.GXO.DX-X<.cXH.XXR.c.7X0X,X<Xk.W / ' OXH :.!.w.>XHXJXSX&.x 9XN.< Y ",
"r.< S T.[.# A.rXY.<X[.f.8 5X}.) zXzX&XwXK.[.| <.[ ;X<.BXG.DXf.VX/.dXs.VXdXV.xX|.4Xk.:.^ =.&X%XzXvXOX' !.A.8 0.t.8X4XM x ~ 3XA t.",
"x.7 D.s Z.# VXFXi.<X X{ t.8XQ.{ @.jX4 &XkX,XXXyXzXpX|.BX..L.}.6X^.5Xd.tXF.dXGX<.*XpXiX` Q.PXc eXfX/ R.4X5.A. X{.,XSXtXo { ( D., ",
"T.S.x o.S.s kXFX4X8.{ a.nX,X0X/.Q @.eX4X* S.! BXL.hXp.}.H.+X4XeXV 6X4X6XL.9Xp.DXdX!.*XA.x.Y.].@Xz B.K.rXE.l.:.Y.f.GXDXz D.k [ S.",
":Xf A 5 R.a %.cXFXM 5.4.Y.yX8.6.R.Q K.V.e.m.F SXG.O.fXV.wX4 [.9.L a.t.V OX+X+XF.G.BX-.T.r r.SX#.H D.8.8Xt.0.9.9 SXPXhXc D.e x .X",
"F x d.a.6.P.v j 6X5Xr.3X0X5X^.~.7X_.! _.H ' U 4X4XO.D.hXm 3X7Xs.8.Y.A.5Xd.rXOXb.L.SXR _.D.T.T.B.7Xm.c.5XhX3Xw.d.DXK.s K m.6 w U ",
"} # 5 r.6.M.Q.[.}.:X[.$.v v d z k o.` | *XzXvX}.A.'.A #.h.T...6.- : z.M.9.:X4 OXD.8.zXpXsXXXQ ~ F g ! [ D.T.T.!.n H U...7 D p.) ",
"m.K C 6.a.` ~ R # d  .i O.+X6XfX$XkXD.} eXO.O.G.V.tX9.;X> 0 X.t ; 5 X.q 8 t.f.rX#.AXdXL.hX1.A.!.6XC.$.+.z # Y Q {._._.:XR.n.9 R ",
"5 T.s m.$ '.=XwXfXm.A.E z +XFXOXl +Xr R.( cXV...#.N.y.R.- > O.z.; y X.5 - 8.8 :X3XF.G.dXpXP m.9XC.O.cXcX&.o { S.0X'.@.b x Q.+.L ",
"j.m.R f.i zXFXFXw.< !.J._.# #.+XwX4X7 T.H .XA.H.wXC.z.X.r : 5 v.B.V.3 1 9 ..V.C.#.+X6XzX~ E.7 9.OXC.fXG W Y.Q.e.f.FXJXvXz }.z S.",
"F M.P R V FXHXi.0.t.8 9XL.D.v z @XK.D.F :.zXd.S >X< J.X.....D lXlXlX'.y O.X.O.y.rXV 9.@X( ;.S.D.jX%.# [ m.+Xt.m 5.9.FXvX%._.K !.",
"`.f T.% 9 f.Y.nX[  X,XU.tX9 /.:XY ` W &X5XH.O.S.B.;X< > 0 S 3.3.n 3.3.&.t 5 M f.4X+XL.dXCX*XQ _.B.` !.x.jXY.W._._.<XY.uXA W nXV.",
"E @.T.v c.uX{.U.A.[ W.d.jXS Q._.a.' _ pX+Xb...V.l >X; ; > : 3.2.I ) 3.V , ; - A.4 #.z.v.L.fX1.R R >XG.5 4XU.~.l.{ ,X}.qX7.$ 7XV ",
"f./.k.[.b DXFX>X< 8.8.6XS.}.s j +XH.K.! 1.HX:Xo.<X; R.q /.G.,.2.& & 3.O.q c.A.8.<X$.9XDXpX) N.S.@Xn F !.K.tX8 5.0.w.JXPX@.Q k.x.",
"; S.~ Z.a fXIXGX8X6 L.Q.' s %.#X%X@X5 m.=.-.w.&.yX}...q v.6.6 2.T 2.>.5 v.G.J.;XtX#.8._.W T.6.}.gX#X@.# _.Q.K.5.s.GXFXcXx D.~ S.",
"0 3Xx ..P ' n %.#XS.[.$ l $XvXOXl &X9 M.^ vX^.F.o.o.R.c.* 5 S G.3 N.Z.; 5 S.3XA V H.5XDXQ M.e f.l &.FX6Xz d {.N.4X@X>.H F M.x K.",
"D l.G 5 m.Z._.[ [.a @ + p V %.5X#XfXM.~ pXG.v.F.C.tX< h.1 , L.G.: o.G.7 ; d.; >X$.O.G.L.jXg m.fX$XfX6XV.l j Y Y E [ B.A.T.e k {.",
"f.g r.[., t S.[ O o.n.R.A.P d d s z x ^ =XfXDX4XN.'.D.B.A.3X/.c.; 5 X.v.C A.'.wXA 3XCXhXwX1.K o.i j s F L B.3XT.B.[ P.O.7 g.N ) ",
":X@ l , x.}.a +.jX8X< Z.5X5Xm.n.S.R.A.B.;.n x `.3XG.N.@X* qX4X;X- A.J.+X* @X*.H.6Xk.Q ~ v P g f.T.P.m.D.5XT.9 4XfX*.h p.S m A @ ",
"k.J f 3 x.c +XPXFX9.9.8.0.:Xf.5 T.s H.H.e M.` zXF.X.+XB.jX4 p.M B.w.w.V wX&X+X..b.vXx T.6.V.V.d M.r Y.9X0.5.8.m JXvXC.' v.w # _.",
"d o.U.i c.F $XFXyX0._.`.E.U.tXb.F V OX$X, 6.W kXb.dXB.B.K.#.qXeX. 4XtX+.6X$.A.#XO.fXQ V.< 8X5X+.D x.tXU.,Xl.`.8.jXGX>.[ o.d [.m.",
"v 0 0 T.E ` '.zXR.MX[ ] u.a.V.a.c jXl @.gXc._ wXbXXX`.6X..H.V L C.%Xl $XL.wXK -XeX%X1.D.jXwXl jXn K b.[.t.` k.W.>XSX@.a.g Z.6.: ",
"A w.w.Z D.@ A < rXA.5.8.6 5Xn.o =XbX$XH.%.D T } D $.1.dXO.fXN +Xq +Xm hXG.dX2.' / ( Q _.&.+X$XzXwXz p.!., m 8.d.eX8 k k.E.n.W.u.",
"1 J % = e.:Xs #.vXvXHX}.c.T.@ w #.b o # ~ } D.S.e S._ 5XfXgX2.gXO.kX-.*X5X#XQ S.e.T.N.g v s s j $.O.@ c.C d.cXvXvX#.% B.e.= $ k.",
"7 Z 2 U.9 !._.s fXzX6X#XS.v @ s F P N.S.R.g +XwX= x.Q *X( H ' eXG.eXD P &XwXE M.; tXOXd m.S.N.[ F x $ d #.4XjXbX%Xo @ Z.7.h.  i.",
"D.c.9 9 5 S.a Z.s j o d [ v !.Q.J.+XA.: T.o OXl cXb.Q Q D.6.m.W wXQ M.I.D ^ H V.jX#.+X# T.: 6X#X!.Q.P.Z.B g s j s A.n S., 7.: t ",
"B W.D.m.P.T.# x.Z.a.c.E.$ #X9 8.t.Y.D.V.B.k $XO.6Xn ^ N.V.; x.L _ a.r 5 m.G P +.=Xk 6Xx D.#X;XA.9.m q.+Xf R.S.P _.F.# A.N.M.Z.F ",
"f c s d H p O r e.w m.s OXPX6 Z a.,Xp.V.v #.cXOXi K [.o.gXB.wXN.R c.fXN.gXb [.F z =XcX$.a.K.t.Y.a.w.8.DX+.c m.t n.r p k [ k.d @ ",
"C.w 3 X P m.e y.U.S P b FXIXq.[ <.f.J S.+ H.%.# B./.A.l %.4 $Xx _.j $X. OXo D.F.' x $XH.g S.m p.1._.8.xXeXz B.e.(.q.x.A.v i 7 G ",
"zX{.{.@Xj v S.9 x.x.[ @.GXIXd.:Xg.N p.D.o j ` D.S.7 C.o gX@Xb D P.i &.%XfXX D.5 J.B.g +.+ m.< 8.p.E.i.xXgXz D.e u.6.}.s >.eXi.uX",
"~ [ ] xXwXX Z.4 z S }.$ kXHXA.A.Z i.c.a.Y ' Q.dX4X4XZ.# gX$Xd P.e m.o fX=X& S.}.rX!.Z.` @ A.r.s.p.[.:X2XC.f b.c z A [.z vXbX/ v ",
"A 3 [ .XwXX P f A.` ! R S , HXxXvXvXV.' L G.N.w.E.4Xx.a $XG p.J.9 /.` *.%.x C.:XU.w.D.n.F h C.GXFXFXrX, s [ a a._.# [ o xX( N 4 ",
"F c [ >.G @ R.c.5XJ.N.v d l hXJXgX=.=.d H.6 8.a.A.w.b.f S f S.=X4XwXS.# 4 H K.m B.d.m M H.[ g b tXhXB.i g Z.n.+X#XZ.g # ,.:.g ' ",
"D pXOXo d E N.jXFXHXN x.A.' # $.n ` :Xx kXg.d.XXF < c.D $ Z.3XM 7X9.J.a.% k.c.6 ] <.9.A.=X# R.K z s g h A 7 qXFXJX=X3Xk.+ %.*X=.",
". c f g.G ` C.K `  Xg.r.A.z R.P _.F.}.x JXeXd.a.9.< N.p.F b.8 p.' i.M b.E B.A , f._.9.yXcXz Z...N.V.V g x.a.`.] H ,.N.f A.g G . ",
"i p e.V.k J +Xa = N XXDXb.$ S e.n.t ' @.vXJX;Xp.g.yX6Xp.F }.; P <.g.* D.C.d tXuXp.d.f.vXvX@.P u 9 5 s r.@XxXv 4 B -XZ.+ V.n.g i ",
"w.M.#.+Xj w.6XF 3 J ] FXH.[ V u.I.6.f.o +XzX|.zXvXDXx N.g zX}.9.[.0.>XgXv [ +.FXGXSX[.zX%.$ N.e.W.C + y.gXpXD N B pXN.a $XOXc.i.",
"Z.+XB.%XO 6.4 P <.] :.jXc.d t 0 q.7 t r.X l 6 wXjX>.~ P.o fXFX}.,X{.vX=Xd R.X +XDXkX5 S g c.4 w 5.0 p f S.*X{ 1..Xl m.a C.#.gXn.",
"g 7 , 6XX e.y O.C.V.c.N.B D e.n.7 j + d + % a + o @ S.t f C.vXvX|.vXbX@X~ v.r.# # # @ d [.g d j w d h @ d s c c C.l n.a @Xg.9 N.",
"% B.T.A.a.K f f f a s a.O O o R b...P p.c.S.[.P x.c.y e p.V &.N., #.n $ [ e y n.m.J v V.S t Z.# a y.N.N.i.Z.r.i.P J P g A.n.Z.s ",
"b # o o U G V V &.o.Z.X C.zXzXz ' b.s = 8.: M.c l 7 a.Z r c.N.l s a K Z.x.S J u 4 s o.5 s.< #.  p.K.GXxXc B ..5X+XK.V.v # & + s ",
"p.gXgX$Xs c.wXl +Xo.g V ' ] xX$X% [.G 8.J 2 C e.v k J 3 . O d K Z.U.g i w 5 A p F o.Z   i.s.N.a A aXaX[ >.o d.K.. wXc.P +.gX=X'.",
"=XbXcXfXv x., zXo.J j &Xs L ' J 3 @ Z.* + a 5.; x.K @ g L c.c.#.p S.M.I.K a + ` V.* 8.R a 5 A.o : [ x Z W '.$ N.$XP 7 P G HXxXuX",
"#.@XjX$X$ p.x.&.N.O V `.#.3 H SXG U ` o.< < S O a _.[ i w * p.a 3 f q.5 o.i.d.K a X Z : N m.P s B.-XJ 3 P >.p g o.b.Z.g k aX*XP "
};
